<svg width="145" height="62" viewBox="0 0 145 62" fill="none" xmlns="http://www.w3.org/2000/svg">
<path d="M72.5477 39.2668H63.8815L61.6315 44.1922H58.3359L68.3471 22.6274L78.0134 44.189H74.67L72.5477 39.2668ZM71.3026 36.3869L68.3016 29.4872L65.1553 36.3869H71.3026Z" fill="white"/>
<path d="M79.3965 31.3926L82.7008 38.5811L85.9907 31.3926H89.3102L82.6737 44.1849L76.0938 31.3926H79.3965Z" fill="white"/>
<path d="M101.797 38.4904H92.6435C92.6729 39.4227 93.0358 40.3134 93.6659 40.9999C93.9685 41.3053 94.3308 41.5447 94.7301 41.7031C95.1294 41.8614 95.557 41.9352 95.9862 41.9198C96.6344 41.9455 97.2736 41.7612 97.8091 41.3943C98.4527 40.8417 98.9978 40.1836 99.4214 39.4479L101.912 40.8399C101.565 41.4437 101.157 42.0097 100.693 42.5286C100.29 42.9761 99.8262 43.3651 99.316 43.6846C98.8246 43.9877 98.2886 44.2115 97.7277 44.3477C97.1222 44.4919 96.5016 44.5626 95.8792 44.5581C95.0278 44.5953 94.1782 44.4505 93.387 44.1332C92.5957 43.816 91.8808 43.3336 91.2899 42.7182C90.094 41.37 89.4725 39.6059 89.5587 37.804C89.4764 36.0123 90.0754 34.256 91.2348 32.8898C92.4225 31.7119 94.023 31.0469 95.6938 31.0372C97.3646 31.0275 98.9728 31.6738 100.174 32.8378C101.324 34.2218 101.906 35.993 101.8 37.7912L101.797 38.4904ZM98.7685 36.0689C98.6546 35.3745 98.2867 34.7476 97.7365 34.3104C97.1864 33.8732 96.4935 33.657 95.793 33.7042C95.4499 33.7005 95.1086 33.7546 94.7833 33.8642C94.4723 33.972 94.1819 34.1321 93.9245 34.3377C93.6644 34.5466 93.4408 34.7975 93.2629 35.0801C93.0721 35.3844 92.9304 35.717 92.8431 36.0657L98.7685 36.0689Z" fill="white"/>
<path d="M111.769 33.5751L109.33 34.8767C108.947 34.0874 108.471 33.6932 107.902 33.6943C107.645 33.6882 107.395 33.7836 107.207 33.9599C107.112 34.0473 107.037 34.1543 106.987 34.2735C106.938 34.3926 106.914 34.5212 106.919 34.6503C106.919 35.1409 107.487 35.627 108.623 36.1086C109.78 36.5335 110.85 37.1656 111.781 37.9741C112.345 38.6026 112.638 39.4297 112.594 40.274C112.605 40.8592 112.489 41.4398 112.254 41.9753C112.018 42.5109 111.669 42.9887 111.231 43.3755C110.637 43.8869 109.929 44.2477 109.167 44.4277C108.405 44.6077 107.611 44.6014 106.851 44.4096C106.092 44.2177 105.39 43.8458 104.804 43.3252C104.218 42.8046 103.765 42.1505 103.484 41.418L106.001 40.2484C106.215 40.6715 106.483 41.0647 106.799 41.418C107.146 41.7463 107.607 41.9255 108.083 41.9172C109.079 41.9172 109.578 41.4617 109.579 40.5508C109.579 40.0255 109.194 39.5351 108.425 39.0797C108.127 38.9309 107.83 38.7864 107.533 38.6461C107.236 38.5058 106.935 38.3613 106.629 38.2125C105.948 37.9179 105.332 37.4889 104.82 36.951C104.356 36.366 104.119 35.6332 104.151 34.8871C104.136 34.3725 104.23 33.8606 104.427 33.385C104.623 32.9095 104.918 32.481 105.292 32.128C106.056 31.4059 107.073 31.0143 108.123 31.0376C108.917 31.0339 109.693 31.2757 110.346 31.7301C110.998 32.1844 111.494 32.8293 111.768 33.5767L111.769 33.5751Z" fill="white"/>
<path d="M114.578 21.9995H117.532V32.4575C118.465 31.5595 119.705 31.0522 120.999 31.0392C121.642 31.0109 122.285 31.1219 122.882 31.3646C123.479 31.6072 124.017 31.9759 124.459 32.4455C125.289 33.568 125.681 34.9559 125.561 36.3477V44.1922H122.608V36.6269C122.672 35.8451 122.482 35.0635 122.064 34.3998C121.846 34.1564 121.574 33.9674 121.27 33.8478C120.966 33.7283 120.639 33.6814 120.314 33.711C119.899 33.6685 119.481 33.7346 119.099 33.9028C118.718 34.0711 118.386 34.3358 118.137 34.671C117.643 35.7101 117.43 36.861 117.52 38.0085V44.2002H114.566L114.578 21.9995Z" fill="white"/>
<path d="M138.037 31.3934H141V44.1929H138.037V42.8514C136.986 43.9277 135.552 44.5417 134.05 44.5583C132.547 44.575 131.1 43.9929 130.025 42.9402C129.927 42.8436 129.832 42.7436 129.741 42.6402C128.577 41.2836 127.963 39.5378 128.024 37.7492C127.964 35.9882 128.579 34.2712 129.741 32.9494C130.273 32.3322 130.934 31.8402 131.677 31.5084C132.42 31.1765 133.227 31.013 134.041 31.0295C134.799 31.0392 135.546 31.208 136.235 31.5249C136.924 31.8418 137.539 32.2998 138.04 32.8694L138.037 31.3934ZM131.037 37.754C130.99 38.8394 131.34 39.9046 132.022 40.7491C132.331 41.1234 132.72 41.423 133.16 41.6255C133.601 41.828 134.081 41.9282 134.565 41.9186C135.062 41.9365 135.556 41.8445 136.013 41.6493C136.47 41.4541 136.879 41.1604 137.21 40.7891C137.864 39.938 138.219 38.8939 138.219 37.8196C138.219 36.7453 137.864 35.7012 137.21 34.8501C136.885 34.4768 136.481 34.1806 136.028 33.9829C135.574 33.7852 135.083 33.6909 134.588 33.7069C134.105 33.6992 133.627 33.7988 133.187 33.9987C132.747 34.1986 132.357 34.4937 132.045 34.8629C131.362 35.6676 131.002 36.6981 131.035 37.754H131.037Z" fill="white"/>
<path d="M30.4018 10L20.6836 31.3064L25.229 35.519L30.0778 40.018L34.9241 35.519L39.6818 31.1088L30.4018 10Z" fill="url(#paint0_linear_807_6701)"/>
<path d="M4 15.8413L12.1547 49.9999L20.6764 31.3087L4 15.8413Z" fill="#69BDFA"/>
<path d="M25.225 35.5198L20.6835 31.3071L12.1602 49.9976H19.3123L30.0793 40.0188L25.225 35.5198Z" fill="url(#paint1_linear_807_6701)"/>
<path d="M39.6875 31.1088L47.9994 49.9984L56.1604 15.8462L39.6875 31.1088Z" fill="#69BDFA"/>
<path d="M34.93 35.5183L30.082 40.0149L40.8458 49.9961H48.0004L39.6901 31.1064L34.93 35.5183Z" fill="url(#paint2_linear_807_6701)"/>
<path d="M19.3125 49.9968H40.8441L30.0795 40.0156L19.3125 49.9968Z" fill="#2868F3"/>
<defs>
<linearGradient id="paint0_linear_807_6701" x1="28.8148" y1="2.40545" x2="32.2142" y2="41.2209" gradientUnits="userSpaceOnUse">
<stop stop-color="#2C2AD2"/>
<stop offset="1" stop-color="#2BBAFE"/>
</linearGradient>
<linearGradient id="paint1_linear_807_6701" x1="21.1197" y1="31.3071" x2="21.1197" y2="49.9976" gradientUnits="userSpaceOnUse">
<stop stop-color="#2863E4"/>
<stop offset="1" stop-color="#3A87F4"/>
</linearGradient>
<linearGradient id="paint2_linear_807_6701" x1="39.0412" y1="31.1064" x2="39.0412" y2="49.9961" gradientUnits="userSpaceOnUse">
<stop stop-color="#2863E4"/>
<stop offset="1" stop-color="#3A87F4"/>
</linearGradient>
</defs>
</svg>
