<?xml version="1.0" standalone="no"?>
<!DOCTYPE svg PUBLIC "-//W3C//DTD SVG 20010904//EN"
 "http://www.w3.org/TR/2001/REC-SVG-20010904/DTD/svg10.dtd">
<svg version="1.0" xmlns="http://www.w3.org/2000/svg"
 width="1400.000000pt" height="1400.000000pt" viewBox="-100 -100 1800.000000 1800.000000"
 preserveAspectRatio="xMidYMid meet">

<g transform="translate(0.000000,1550.000000) scale(0.100000,-0.100000)"
fill="#000000" stroke="none">
<path d="M7070 15418 c10 -46 71 -343 135 -660 108 -525 120 -577 139 -582 12
-3 80 -6 151 -6 l130 0 130 485 c89 332 132 478 137 462 3 -12 51 -232 105
-489 87 -414 100 -468 118 -472 11 -3 79 -6 150 -6 l130 0 173 651 c96 358
172 652 170 654 -2 2 -60 5 -128 6 -113 1 -125 0 -132 -17 -7 -17 -178 -736
-209 -878 -16 -73 -19 -66 -55 114 -44 226 -162 779 -169 790 -4 6 -64 10
-148 10 l-142 0 -33 -122 c-170 -646 -221 -831 -225 -818 -3 8 -8 31 -11 50
-16 103 -158 896 -162 902 -3 5 -65 8 -139 8 l-133 0 18 -82z"/>
<path d="M6103 15320 c-255 -54 -474 -100 -487 -104 l-24 -6 24 -111 c13 -61
26 -114 29 -118 4 -3 85 11 180 30 l174 36 16 -71 c8 -39 58 -273 110 -519 51
-247 96 -451 98 -454 3 -2 64 8 135 23 105 22 129 30 126 43 -16 69 -214 1020
-214 1027 0 5 75 24 168 43 92 19 171 38 176 42 9 8 -30 218 -43 230 -3 3
-214 -38 -468 -91z"/>
<path d="M9480 15221 c-125 -40 -221 -116 -300 -238 -103 -157 -171 -416 -155
-588 23 -243 156 -406 390 -481 220 -70 403 -29 557 127 63 63 86 95 127 181
95 194 133 427 97 591 -47 209 -181 344 -406 406 -95 27 -232 27 -310 2z m306
-260 c109 -52 161 -148 152 -280 -6 -78 -71 -317 -104 -382 -70 -139 -194
-197 -337 -155 -126 37 -199 134 -200 268 0 74 54 302 93 393 29 67 77 123
132 155 46 26 63 30 128 30 62 0 86 -5 136 -29z"/>
<path d="M4965 15004 c-55 -24 -107 -47 -116 -52 -15 -6 8 -65 156 -407 96
-220 172 -401 170 -403 -2 -2 -46 32 -97 75 -92 78 -673 508 -701 519 -18 7
-267 -97 -267 -111 0 -10 502 -1173 515 -1195 5 -7 217 79 233 94 5 5 -11 42
-222 530 -69 159 -118 282 -108 274 9 -8 50 -42 89 -75 93 -79 699 -523 713
-523 14 0 242 99 253 109 7 7 -494 1184 -512 1203 -3 3 -51 -14 -106 -38z"/>
<path d="M10603 14231 c-167 -318 -303 -581 -303 -584 0 -11 233 -128 240
-120 4 4 56 101 116 216 59 114 113 207 119 207 5 0 46 -20 90 -43 l80 -43 0
-105 c0 -57 -2 -182 -5 -277 l-5 -173 131 -69 131 -69 7 67 c3 37 6 169 6 293
l0 226 68 5 c167 12 301 136 357 332 24 81 17 184 -17 257 -47 102 -96 139
-417 307 -159 83 -291 152 -293 152 -2 0 -139 -261 -305 -579z m582 163 c160
-84 195 -115 195 -172 -1 -46 -64 -168 -103 -196 -47 -35 -88 -26 -237 53 -74
39 -141 75 -148 80 -11 6 3 42 65 159 43 84 79 152 81 152 1 0 67 -34 147 -76z"/>
<path d="M3213 14072 c-194 -136 -352 -250 -353 -254 0 -9 747 -1069 755
-1070 4 0 163 109 353 243 190 134 350 247 355 251 11 6 -120 198 -135 198 -5
0 -117 -77 -250 -170 -132 -94 -242 -169 -244 -168 -12 13 -164 234 -164 240
0 4 97 75 215 159 198 139 215 153 203 170 -7 10 -38 54 -68 98 -30 44 -60 79
-65 77 -6 -2 -103 -69 -217 -150 -114 -80 -210 -146 -215 -146 -7 1 -80 102
-145 200 l-18 27 245 172 c135 95 245 175 245 177 0 9 -133 194 -139 194 -3 0
-164 -111 -358 -248z"/>
<path d="M12095 14023 c-33 -42 -65 -84 -72 -93 -11 -15 5 -31 122 -124 74
-59 137 -112 140 -117 4 -5 -139 -192 -317 -416 -178 -223 -326 -412 -330
-418 -5 -7 32 -43 99 -95 103 -81 107 -83 122 -64 9 11 157 199 330 417 173
218 318 397 321 397 4 0 65 -46 136 -101 71 -56 134 -106 140 -110 7 -6 37 24
82 81 40 49 72 94 72 98 0 10 -751 610 -772 617 -7 2 -40 -30 -73 -72z"/>
<path d="M2306 13374 c-53 -60 -82 -102 -77 -108 4 -6 79 -108 166 -226 132
-179 368 -496 409 -549 10 -13 -65 25 -159 80 -16 9 -183 99 -370 199 l-340
182 -54 -59 c-29 -32 -73 -81 -98 -110 l-44 -51 249 -354 c137 -194 266 -378
288 -408 21 -30 34 -52 29 -48 -6 3 -129 74 -275 158 -146 84 -335 193 -420
243 l-155 89 -43 -48 c-109 -123 -135 -155 -126 -163 16 -14 1161 -631 1172
-631 8 0 74 71 184 196 19 21 16 25 -260 420 -153 219 -282 405 -287 413 -4 8
36 -10 91 -39 424 -229 789 -419 795 -412 152 170 188 215 182 225 -11 19
-754 1081 -763 1090 -4 5 -46 -35 -94 -89z"/>
<path d="M12840 12681 c-272 -230 -495 -423 -495 -429 0 -12 155 -202 164
-202 3 0 96 76 206 170 110 93 205 169 210 169 9 0 316 -360 323 -378 1 -4
-90 -85 -203 -180 -180 -152 -204 -175 -193 -190 7 -9 46 -56 86 -104 64 -76
76 -86 90 -75 149 119 986 834 984 841 -5 15 -163 197 -170 197 -4 -1 -95 -75
-201 -166 -107 -90 -198 -163 -202 -162 -15 6 -319 374 -316 383 2 6 81 76
176 156 95 81 182 156 194 167 l20 21 -82 98 c-46 54 -86 99 -90 100 -3 1
-229 -186 -501 -416z"/>
<path d="M7350 11909 c-367 -40 -731 -153 -1070 -331 -63 -34 -230 -130 -370
-213 -372 -222 -461 -264 -663 -307 -142 -30 -381 -30 -552 1 -141 25 -325 73
-520 134 -187 60 -242 71 -355 71 -441 1 -510 -406 -192 -1134 27 -63 82 -187
122 -275 92 -206 142 -358 172 -520 21 -119 23 -156 22 -450 -1 -274 -5 -371
-33 -675 -51 -576 -52 -919 -1 -1315 62 -485 215 -953 431 -1322 322 -548 802
-989 1425 -1308 l111 -56 176 -253 c316 -454 508 -670 755 -854 544 -404 1200
-404 1744 0 247 184 439 400 755 854 l176 253 111 56 c834 426 1401 1061 1682
1879 150 437 209 832 208 1381 -1 276 -5 370 -33 680 -38 423 -50 796 -32 980
25 243 70 400 192 672 39 87 94 210 121 273 318 728 249 1135 -192 1134 -113
0 -168 -11 -355 -71 -195 -61 -379 -109 -520 -134 -171 -31 -410 -31 -552 -1
-202 43 -291 85 -663 307 -478 285 -708 389 -1052 474 -238 60 -354 73 -673
76 -159 2 -328 -1 -375 -6z m665 -475 c432 -60 741 -189 1325 -554 277 -173
393 -225 595 -269 338 -74 780 -28 1201 124 133 48 196 59 253 45 88 -22 113
-77 91 -200 -26 -144 -100 -332 -279 -707 -117 -245 -174 -405 -195 -554 -22
-149 -20 -524 4 -944 27 -447 36 -1006 21 -1190 -48 -569 -205 -999 -533
-1459 -152 -213 -378 -455 -558 -600 -246 -197 -539 -350 -798 -415 -255 -65
-616 -68 -857 -6 -124 32 -177 57 -234 110 -69 64 -111 178 -118 316 -8 151
29 240 150 356 85 82 169 135 425 267 347 179 410 231 447 373 19 71 19 119 0
208 -23 107 -74 203 -146 269 -33 31 -66 56 -74 56 -7 0 -23 -16 -35 -35 -148
-239 -465 -392 -883 -425 -507 -41 -976 132 -1157 425 -12 19 -28 35 -35 35
-25 0 -122 -99 -152 -157 -59 -111 -83 -246 -64 -362 28 -169 99 -234 466
-419 326 -165 448 -259 516 -398 33 -66 34 -73 33 -179 0 -99 -3 -119 -33
-197 -52 -139 -123 -194 -316 -243 -241 -62 -602 -59 -857 6 -259 65 -552 218
-798 415 -180 145 -406 387 -558 600 -327 458 -483 883 -533 1454 -16 179 -6
748 20 1195 25 420 27 795 5 944 -21 149 -78 309 -195 554 -179 375 -253 563
-279 707 -22 123 3 178 91 200 57 14 120 3 253 -45 421 -152 863 -198 1201
-124 202 44 318 96 594 269 266 166 354 217 509 294 336 168 638 252 1007 280
92 7 369 -5 480 -20z m-86 -7200 c110 -16 239 -45 496 -114 83 -21 168 -40
190 -40 77 -1 76 -9 -21 -127 -191 -234 -384 -404 -548 -483 -134 -64 -221
-85 -366 -85 -145 0 -232 21 -366 85 -164 79 -357 249 -548 483 -97 118 -98
126 -21 127 22 0 108 19 190 40 250 67 385 98 485 113 130 20 377 21 509 1z"/>
<path d="M5095 8775 c-9 -78 0 -225 22 -355 70 -430 322 -736 693 -843 141
-41 244 -51 444 -43 209 8 258 -1 330 -65 66 -58 89 -121 84 -230 -1 -48 1
-85 5 -82 20 12 99 147 126 215 43 107 61 210 61 346 0 359 -181 606 -581 796
-211 100 -388 152 -804 235 -137 28 -277 59 -309 71 -33 11 -60 20 -62 20 -1
0 -6 -29 -9 -65z"/>
<path d="M10190 8819 c-30 -11 -167 -42 -305 -70 -416 -83 -593 -135 -804
-235 -399 -189 -581 -438 -582 -795 0 -133 19 -240 62 -347 27 -68 106 -203
126 -215 4 -3 6 34 5 82 -5 109 18 172 84 230 72 64 121 73 330 65 264 -10
434 20 609 107 330 165 516 492 550 966 7 93 -1 234 -14 232 -3 0 -31 -9 -61
-20z"/>
<path d="M310 9810 c-56 -207 -109 -414 -107 -415 4 -4 136 -35 146 -35 5 0
15 24 21 53 7 28 15 57 19 63 4 8 113 -17 346 -79 187 -49 342 -91 344 -93 2
-2 -3 -31 -12 -66 -9 -34 -15 -64 -13 -65 5 -6 148 -44 151 -41 5 7 115 428
115 442 0 10 -16 19 -42 26 -24 6 -56 15 -72 20 -16 6 -30 10 -31 10 -2 0 -11
-29 -20 -65 -10 -36 -21 -65 -24 -65 -3 0 -158 41 -345 90 -186 50 -340 90
-342 90 -1 0 5 30 15 66 13 46 15 67 7 69 -42 14 -122 35 -132 35 -7 0 -18
-18 -24 -40z"/>
<path d="M13994 9774 c31 -131 50 -184 64 -188 24 -7 452 -106 460 -106 4 -1
-74 -79 -173 -174 l-180 -173 23 -94 c13 -52 26 -99 30 -106 4 -7 102 81 267
240 l260 252 190 49 c105 27 192 51 194 52 5 5 -40 184 -49 189 -3 2 -90 -18
-191 -45 -101 -28 -191 -50 -200 -50 -13 0 -622 157 -681 176 -19 6 -20 3 -14
-22z"/>
<path d="M76 8769 c-9 -93 -8 -129 7 -129 6 0 167 -16 357 -35 190 -19 350
-35 355 -35 6 -1 -55 -27 -135 -59 -150 -60 -616 -273 -630 -288 -13 -13 -31
-206 -20 -213 13 -8 1018 -105 1025 -99 2 3 6 46 7 95 l3 89 -357 35 c-197 19
-358 37 -358 40 0 3 46 23 103 44 56 22 229 98 385 169 263 121 282 132 283
156 0 14 4 62 9 106 4 44 7 81 6 82 -2 2 -1007 103 -1025 103 -5 0 -11 -28
-15 -61z"/>
<path d="M14990 8714 c-135 -12 -247 -23 -250 -23 -8 -1 25 -379 33 -388 4 -3
41 -2 84 3 l77 9 -4 60 c-8 147 -10 140 35 143 133 11 211 -76 209 -233 -1
-117 -62 -200 -169 -230 -73 -20 -291 -37 -347 -27 -120 23 -188 101 -196 228
-4 65 -1 80 22 128 15 31 42 66 64 82 20 15 39 29 41 30 1 2 -20 37 -49 78
l-52 76 -30 -18 c-49 -28 -108 -99 -141 -170 -30 -64 -32 -73 -31 -182 0 -94
5 -125 22 -171 50 -127 140 -215 264 -259 88 -31 264 -38 379 -16 283 56 448
263 399 501 -21 104 -73 175 -150 208 l-35 15 46 1 c26 1 60 4 76 7 l29 6 -8
71 c-4 40 -7 78 -7 85 -1 15 -8 15 -311 -14z"/>
<path d="M662 7442 c-60 -22 -103 -58 -137 -117 -32 -55 -44 -106 -55 -236
-16 -171 -40 -209 -136 -209 -92 0 -143 68 -144 191 0 80 18 135 66 202 l36
50 -53 46 c-89 78 -83 77 -123 29 -146 -170 -139 -489 15 -638 112 -109 325
-107 427 4 53 58 80 134 97 280 8 67 18 134 24 148 27 70 128 93 181 40 33
-33 50 -87 50 -157 0 -70 -15 -117 -54 -168 l-33 -43 69 -61 70 -62 27 32 c87
99 119 253 87 408 -25 116 -88 209 -170 251 -58 30 -174 35 -244 10z"/>
<path d="M14655 7359 c-122 -18 -205 -59 -274 -134 -80 -87 -116 -200 -109
-345 12 -258 229 -419 568 -423 267 -2 422 99 485 317 24 81 17 230 -14 309
-48 122 -185 222 -356 260 -92 21 -226 28 -300 16z m183 -209 c177 -19 260
-59 303 -142 33 -64 30 -161 -7 -229 -57 -103 -135 -129 -334 -111 -150 15
-212 31 -267 71 -56 40 -83 101 -83 182 1 145 92 235 243 238 26 1 91 -4 145
-9z"/>
<path d="M1058 6428 c-51 -13 -78 -25 -78 -34 0 -8 14 -71 31 -140 22 -88 29
-128 21 -133 -6 -4 -192 -51 -414 -105 -222 -54 -405 -100 -407 -102 -3 -3 39
-185 44 -192 1 -1 190 44 419 101 229 58 418 102 420 98 2 -3 18 -67 36 -142
l33 -135 84 20 c46 11 83 25 83 31 1 19 -185 755 -190 754 -3 -1 -40 -10 -82
-21z"/>
<path d="M15002 5978 c-5 -18 -29 -106 -53 -195 -24 -90 -46 -163 -49 -163 -3
0 -189 51 -415 114 l-410 113 -22 -69 c-12 -39 -24 -82 -28 -97 l-6 -27 486
-133 c267 -73 493 -134 502 -135 13 -1 31 52 89 264 40 146 76 277 79 291 6
25 3 27 -57 43 -35 8 -73 19 -85 22 -18 5 -23 1 -31 -28z"/>
<path d="M1370 5353 c-36 -14 -67 -28 -69 -29 -2 -2 6 -27 18 -55 11 -28 21
-57 21 -64 0 -16 -649 -280 -659 -269 -5 5 -16 31 -26 57 -10 26 -21 50 -26
52 -4 3 -29 -4 -56 -16 -26 -11 -58 -25 -70 -29 -21 -9 -20 -12 43 -167 35
-87 76 -186 90 -220 l25 -61 74 30 74 30 -21 52 c-11 28 -21 57 -22 65 -1 9
107 58 328 148 181 73 330 132 331 131 1 -2 12 -29 24 -60 13 -32 29 -58 37
-58 13 0 123 46 132 55 6 6 -169 435 -177 435 -3 -1 -35 -13 -71 -27z"/>
<path d="M13967 5110 c-186 -47 -327 -241 -327 -451 0 -193 147 -361 402 -459
165 -64 308 -63 430 2 111 59 202 194 229 339 42 231 -133 444 -451 549 -74
24 -224 35 -283 20z m283 -244 c142 -65 195 -100 232 -155 77 -111 30 -279
-95 -343 -32 -16 -54 -19 -111 -16 -60 3 -90 12 -190 58 -134 61 -187 97 -228
155 -55 78 -45 195 23 278 50 61 91 78 184 74 71 -2 91 -8 185 -51z"/>
<path d="M1682 4608 c-39 -23 -72 -46 -72 -51 0 -5 32 -63 70 -129 39 -66 69
-122 68 -123 -2 -1 -167 -98 -368 -215 -201 -116 -367 -214 -369 -216 -3 -3
80 -156 94 -172 1 -1 168 95 371 213 202 118 371 215 374 215 3 0 38 -56 77
-124 l73 -125 75 42 c41 23 75 45 75 48 0 7 -378 658 -389 671 -4 4 -39 -11
-79 -34z"/>
<path d="M13243 4018 c-28 -40 -50 -75 -48 -79 3 -3 137 -102 299 -219 163
-118 294 -215 293 -216 -1 -1 -49 6 -107 17 -115 20 -726 83 -738 75 -18 -11
-123 -166 -118 -174 6 -10 811 -595 826 -600 10 -4 110 127 109 143 0 6 -130
104 -290 219 -159 115 -287 211 -285 214 3 2 49 -3 103 -13 87 -14 655 -75
709 -75 23 0 151 167 137 180 -20 18 -815 591 -826 595 -7 3 -35 -28 -64 -67z"/>
<path d="M2125 3474 c-126 -107 -261 -225 -298 -262 -156 -154 -174 -303 -57
-470 158 -226 336 -278 532 -156 25 16 166 130 312 253 l265 224 -42 50 c-23
27 -52 61 -63 75 l-22 26 -88 -75 c-456 -389 -498 -419 -569 -419 -92 0 -205
117 -205 211 0 74 40 118 326 361 l273 231 -61 74 c-33 40 -63 73 -67 73 -3
-1 -109 -89 -236 -196z"/>
<path d="M12438 3015 l-68 -65 145 -154 145 -154 -157 -147 -157 -146 -100
108 c-56 59 -121 129 -146 155 l-45 47 -72 -68 -72 -67 350 -377 c193 -207
355 -377 359 -377 12 0 141 122 138 130 -2 5 -66 77 -143 160 -77 84 -140 155
-140 159 0 9 305 295 309 290 1 -2 69 -75 150 -161 l146 -158 72 69 73 69
-116 123 c-64 68 -220 237 -348 374 -128 138 -238 251 -244 252 -7 2 -42 -26
-79 -62z"/>
<path d="M3077 2741 l-56 -68 114 -94 114 -94 -43 -50 c-167 -197 -506 -609
-505 -614 1 -8 124 -110 141 -116 8 -3 116 120 283 320 148 179 274 325 280
325 5 -1 57 -41 115 -90 l105 -89 28 32 c16 18 42 48 57 68 l30 36 -287 239
c-158 132 -294 244 -303 251 -15 10 -25 2 -73 -56z"/>
<path d="M11440 2169 c-123 -24 -274 -137 -324 -243 -88 -185 -20 -440 173
-648 107 -117 209 -163 344 -156 99 5 170 31 249 91 115 87 168 190 168 328
l0 69 -49 0 c-26 0 -69 -3 -94 -6 -45 -6 -45 -7 -40 -39 22 -139 -123 -280
-265 -259 -76 11 -129 57 -214 184 -90 134 -118 199 -118 276 0 91 49 162 140
203 61 28 117 27 174 -4 26 -14 49 -25 51 -25 5 0 97 161 93 165 -15 13 -98
48 -145 60 -63 17 -77 17 -143 4z"/>
<path d="M3786 1652 c-141 -242 -256 -443 -256 -448 0 -8 533 -325 572 -339
12 -5 26 10 58 64 23 38 39 74 36 79 -3 5 -88 57 -188 115 -101 58 -192 112
-202 120 -18 13 -16 19 44 120 34 59 66 107 70 107 8 0 213 -117 336 -191 l32
-19 41 69 c22 38 41 74 41 79 0 6 -75 54 -167 108 -93 53 -174 102 -181 109
-10 9 -3 29 39 101 28 49 57 95 64 102 9 10 53 -12 219 -109 114 -66 209 -119
210 -117 18 26 87 150 84 152 -29 21 -578 336 -585 336 -6 0 -126 -197 -267
-438z"/>
<path d="M10255 1543 c-165 -70 -302 -128 -304 -129 -8 -6 392 -954 403 -954
8 0 609 246 624 255 3 3 -58 149 -66 157 -4 3 -103 -34 -221 -83 -118 -49
-219 -88 -224 -86 -9 3 -97 203 -97 223 0 6 84 46 188 89 103 43 190 81 194
84 5 5 -45 142 -59 160 -1 2 -91 -33 -199 -78 -108 -45 -198 -81 -200 -79 -3
3 -94 219 -94 222 0 1 101 44 224 96 208 86 224 95 216 114 -29 77 -61 136
-72 135 -7 0 -148 -57 -313 -126z"/>
<path d="M9202 1200 c-199 -48 -365 -89 -368 -92 -5 -6 30 -156 39 -164 2 -2
65 10 140 28 75 17 139 30 141 27 2 -2 48 -188 101 -414 54 -226 99 -412 100
-413 2 -2 47 6 100 18 79 18 95 25 91 38 -24 79 -193 818 -188 823 4 3 63 19
132 34 69 16 129 32 134 36 6 5 2 41 -9 89 -14 60 -22 80 -34 79 -9 -1 -179
-40 -379 -89z"/>
<path d="M5975 1216 c-184 -45 -305 -199 -360 -459 -19 -86 -19 -216 -1 -284
42 -158 159 -268 328 -308 163 -38 310 4 416 119 55 59 86 117 121 221 124
370 3 643 -315 710 -82 17 -121 18 -189 1z m216 -193 c60 -23 115 -93 130
-161 11 -50 9 -70 -9 -163 -47 -230 -84 -303 -179 -346 -46 -21 -65 -25 -112
-20 -71 6 -130 35 -170 84 -37 45 -51 89 -51 160 0 54 40 241 66 308 55 140
184 195 325 138z"/>
<path d="M7029 1047 c-2 -11 -55 -1033 -53 -1036 2 -2 47 -4 101 -5 l98 -1 11
210 c7 116 12 212 13 214 1 3 325 -8 388 -13 16 -1 19 11 23 86 l5 87 -55 5
c-30 3 -121 8 -202 12 l-148 6 0 63 c0 34 3 90 7 125 l6 62 61 -5 c34 -4 138
-9 232 -13 l171 -7 6 83 c4 46 5 86 2 88 -3 3 -118 11 -257 18 -139 7 -288 15
-330 18 -43 3 -78 4 -79 3z"/>
</g>
</svg>
